<svg width="207" height="105" viewBox="0 0 207 105" fill="none" xmlns="http://www.w3.org/2000/svg">
<path d="M22.1339 97.7937C22.1339 88.312 22.1223 56.7241 22.1223 31.4427C22.1223 24.3668 25.1075 3 53.7241 3C82.3406 3 82.6211 28.4923 83.321 38.4607C84.3292 52.8327 84.2481 73.9214 97.2272 85.2781C105.993 92.9474 119.941 92.2312 127.357 86.6687C142.098 75.6133 141.722 64.6228 144.884 55.1435C146.341 50.7677 156.319 39.3414 173.326 39.3414C195.449 39.3414 201.769 48.5983 201.769 70.9432C201.769 83.5839 201.757 72.5123 201.757 97.7937" stroke="#4D5C63" stroke-width="5" stroke-miterlimit="10"/>
<path d="M0 51.9822H44.2425" stroke="#4D5C63" stroke-width="5" stroke-miterlimit="10"/>
<path d="M144.884 35.7397V79.9822" stroke="#4D5C63" stroke-width="5" stroke-miterlimit="10"/>
<path d="M22.1225 102.631C23.8685 102.631 25.2838 101.215 25.2838 99.4694C25.2838 97.7235 23.8685 96.3081 22.1225 96.3081C20.3766 96.3081 18.9612 97.7235 18.9612 99.4694C18.9612 101.215 20.3766 102.631 22.1225 102.631Z" stroke="#4D5C63" stroke-width="4" stroke-miterlimit="10"/>
<path d="M86.0884 33.0212C86.0884 34.7687 84.6723 36.1849 82.9317 36.1849C81.1911 36.1849 79.7681 34.7687 79.7681 33.0212C79.7681 31.2737 81.1842 29.8645 82.9317 29.8645C84.6793 29.8645 86.0884 31.2806 86.0884 33.0212Z" stroke="#4D5C63" stroke-width="4" stroke-miterlimit="10"/>
<path d="M201.839 102.64C203.585 102.64 205 101.224 205 99.4785C205 97.7325 203.585 96.3171 201.839 96.3171C200.093 96.3171 198.677 97.7325 198.677 99.4785C198.677 101.224 200.093 102.64 201.839 102.64Z" stroke="#4D5C63" stroke-width="4" stroke-miterlimit="10"/>
</svg>
