<svg width="100" height="76" viewBox="0 0 100 76" fill="none" xmlns="http://www.w3.org/2000/svg">
<path d="M23.731 52.626C23.929 52.89 24.05 53.198 24.094 53.55C24.094 53.682 24.083 53.814 24.061 53.946C24.061 54.056 24.05 54.166 24.028 54.276C24.006 54.518 23.863 54.749 23.599 54.969C23.445 55.079 23.247 55.189 23.005 55.299C22.873 55.343 22.73 55.376 22.576 55.398C22.444 55.398 22.29 55.409 22.114 55.431C21.982 55.475 21.839 55.497 21.685 55.497C21.531 55.497 21.377 55.497 21.223 55.497H19.738L12.841 55.53V55.629L12.808 61.008C12.984 61.008 13.171 61.008 13.369 61.008C13.589 61.008 13.853 60.997 14.161 60.975C15.041 60.975 15.822 60.975 16.504 60.975C17.208 60.975 17.978 60.986 18.814 61.008H19.012C19.254 61.008 19.496 61.019 19.738 61.041C20.002 61.041 20.266 61.041 20.53 61.041C20.772 61.063 21.014 61.096 21.256 61.14C21.498 61.162 21.74 61.217 21.982 61.305C22.378 61.437 22.664 61.646 22.84 61.932C23.082 62.218 23.203 62.515 23.203 62.823C23.203 62.955 23.203 63.087 23.203 63.219C23.203 63.329 23.181 63.45 23.137 63.582C23.115 63.758 22.972 63.978 22.708 64.242C22.532 64.396 22.323 64.495 22.081 64.539C21.971 64.583 21.839 64.627 21.685 64.671C21.553 64.693 21.41 64.715 21.256 64.737C21.102 64.759 20.948 64.781 20.794 64.803C20.662 64.803 20.508 64.803 20.332 64.803H18.814L12.742 64.836L12.643 72.492V72.756C12.643 72.866 12.632 72.976 12.61 73.086C12.61 73.174 12.599 73.273 12.577 73.383C12.533 73.493 12.489 73.614 12.445 73.746C12.423 73.856 12.39 73.966 12.346 74.076C12.192 74.384 12.049 74.593 11.917 74.703C11.675 74.879 11.378 75 11.026 75.066C10.432 75.198 9.871 75.132 9.343 74.868C9.233 74.802 9.123 74.725 9.013 74.637C8.925 74.527 8.848 74.395 8.782 74.241C8.738 74.153 8.716 74.087 8.716 74.043L8.617 73.845C8.551 73.735 8.507 73.625 8.485 73.515C8.463 73.383 8.441 73.262 8.419 73.152C8.419 73.042 8.408 72.932 8.386 72.822C8.386 72.712 8.375 72.602 8.353 72.492C8.331 72.316 8.331 72.14 8.353 71.964V71.436L8.386 68.862L8.419 64.11C8.441 63.406 8.452 62.691 8.452 61.965C8.452 61.239 8.452 60.491 8.452 59.721C8.43 58.929 8.419 58.225 8.419 57.609C8.441 56.993 8.474 56.322 8.518 55.596V55.431C8.54 55.189 8.551 54.969 8.551 54.771C8.551 54.551 8.573 54.331 8.617 54.111C8.661 53.627 8.771 53.198 8.947 52.824C9.101 52.45 9.321 52.186 9.607 52.032C9.937 51.834 10.289 51.735 10.663 51.735C10.839 51.735 10.982 51.746 11.092 51.768V51.735C11.488 51.735 11.807 51.735 12.049 51.735C12.291 51.735 12.522 51.735 12.742 51.735C12.962 51.735 13.204 51.735 13.468 51.735C13.732 51.713 14.084 51.702 14.524 51.702C16.284 51.68 18.022 51.68 19.738 51.702H19.903C20.145 51.724 20.387 51.735 20.629 51.735C20.893 51.735 21.157 51.746 21.421 51.768C21.663 51.768 21.905 51.801 22.147 51.867C22.389 51.911 22.631 51.977 22.873 52.065C23.247 52.175 23.533 52.362 23.731 52.626ZM30.4282 62.493C30.4282 63.109 30.4282 63.802 30.4282 64.572C30.4502 65.342 30.4612 66.145 30.4612 66.981C30.4612 67.795 30.4612 68.609 30.4612 69.423C30.4612 70.215 30.4502 70.952 30.4282 71.634C30.4062 71.964 30.3732 72.327 30.3292 72.723C30.2852 73.097 30.1972 73.449 30.0652 73.779C29.9332 74.109 29.7242 74.384 29.4382 74.604C29.1742 74.802 28.8112 74.89 28.3492 74.868C27.6672 74.824 27.1722 74.527 26.8642 73.977C26.5782 73.427 26.4132 72.657 26.3692 71.667C26.3692 71.161 26.3582 70.578 26.3362 69.918C26.3362 69.258 26.3252 68.587 26.3032 67.905C26.3032 67.223 26.3032 66.563 26.3032 65.925C26.3032 65.265 26.3032 64.671 26.3032 64.143C26.3032 63.835 26.2922 63.461 26.2702 63.021C26.2702 62.581 26.2812 62.13 26.3032 61.668C26.3252 61.206 26.3802 60.766 26.4682 60.348C26.5562 59.908 26.6992 59.545 26.8972 59.259C27.0512 59.083 27.2712 58.951 27.5572 58.863C27.8432 58.753 28.1402 58.698 28.4482 58.698C28.7782 58.698 29.0862 58.753 29.3722 58.863C29.6802 58.973 29.9002 59.127 30.0322 59.325C30.1202 59.457 30.1862 59.644 30.2302 59.886C30.2742 60.128 30.3072 60.403 30.3292 60.711C30.3732 60.997 30.3952 61.305 30.3952 61.635C30.4172 61.943 30.4282 62.229 30.4282 62.493ZM29.1742 55.827C28.4922 56.003 27.9202 55.937 27.4582 55.629C27.0182 55.299 26.7432 54.815 26.6332 54.177C26.5452 53.715 26.5782 53.308 26.7322 52.956C26.8862 52.604 27.1172 52.34 27.4252 52.164C27.7332 51.966 28.0852 51.878 28.4812 51.9C28.8772 51.922 29.2732 52.076 29.6692 52.362C30.0432 52.626 30.3072 52.934 30.4612 53.286C30.6372 53.638 30.6922 53.979 30.6262 54.309C30.5822 54.639 30.4392 54.947 30.1972 55.233C29.9552 55.497 29.6142 55.695 29.1742 55.827ZM33.7153 63.219C33.7153 62.713 33.7043 62.174 33.6823 61.602C33.6823 61.03 33.7813 60.513 33.9793 60.051C34.1553 59.633 34.4413 59.336 34.8373 59.16C35.2553 58.962 35.6623 58.918 36.0583 59.028C36.4543 59.094 36.7623 59.215 36.9823 59.391C37.2023 59.567 37.3563 59.776 37.4443 60.018C37.5543 60.238 37.6203 60.502 37.6423 60.81C37.6643 61.096 37.6863 61.382 37.7083 61.668C37.9283 61.272 38.2033 60.953 38.5333 60.711C38.8633 60.469 39.2043 60.271 39.5563 60.117C39.9083 59.963 40.2383 59.853 40.5463 59.787C40.8763 59.721 41.1293 59.688 41.3053 59.688C42.1413 59.688 42.9663 59.875 43.7803 60.249C44.6163 60.601 45.3093 61.107 45.8593 61.767C46.1673 62.163 46.3983 62.581 46.5523 63.021C46.7283 63.439 46.8493 63.879 46.9153 64.341C47.0033 64.803 47.0583 65.276 47.0803 65.76C47.1023 66.222 47.1243 66.695 47.1463 67.179C47.2563 68.587 47.2563 69.984 47.1463 71.37C47.1243 71.656 47.1133 71.986 47.1133 72.36C47.1133 72.734 47.0803 73.108 47.0143 73.482C46.9703 73.834 46.8713 74.153 46.7173 74.439C46.5853 74.703 46.3543 74.868 46.0243 74.934C45.5623 75.044 45.1773 75.066 44.8693 75C44.5833 74.956 44.3523 74.857 44.1763 74.703C44.0003 74.549 43.8683 74.351 43.7803 74.109C43.6923 73.867 43.6153 73.592 43.5493 73.284C43.5053 73.042 43.4613 72.767 43.4173 72.459C43.3953 72.129 43.3733 71.799 43.3513 71.469C43.3513 71.139 43.3403 70.82 43.3183 70.512C43.3183 70.182 43.3183 69.885 43.3183 69.621C43.3183 69.203 43.3073 68.741 43.2853 68.235C43.2633 67.729 43.2633 67.256 43.2853 66.816C43.2853 65.782 43.0103 65.001 42.4603 64.473C41.9323 63.923 41.2063 63.692 40.2823 63.78C39.5783 63.868 38.9623 64.154 38.4343 64.638C37.9063 65.1 37.6533 65.705 37.6753 66.453C37.6753 66.739 37.6753 67.003 37.6753 67.245C37.6753 67.487 37.6643 67.729 37.6423 67.971C37.6423 68.213 37.6423 68.477 37.6423 68.763C37.6423 69.049 37.6423 69.368 37.6423 69.72C37.6423 70.446 37.6423 71.216 37.6423 72.03C37.6423 72.822 37.5433 73.471 37.3453 73.977C37.1693 74.505 36.8723 74.868 36.4543 75.066C36.0363 75.264 35.5413 75.209 34.9693 74.901C34.7273 74.769 34.5293 74.593 34.3753 74.373C34.2433 74.131 34.1333 73.878 34.0453 73.614C33.9793 73.35 33.9353 73.086 33.9133 72.822C33.8913 72.536 33.8693 72.272 33.8473 72.03C33.7813 71.304 33.7373 70.633 33.7153 70.017C33.7153 69.379 33.7153 68.697 33.7153 67.971V63.219ZM60.1883 51.933C60.6063 51.823 60.9693 51.812 61.2773 51.9C61.6073 51.966 61.8823 52.109 62.1023 52.329C62.3443 52.549 62.5203 52.824 62.6303 53.154C62.7623 53.484 62.8283 53.847 62.8283 54.243C62.8503 55.343 62.8503 56.201 62.8283 56.817C62.8283 57.433 62.8283 57.972 62.8283 58.434V68.565C62.8283 69.753 62.8283 70.743 62.8283 71.535C62.8283 72.327 62.7843 72.976 62.6963 73.482C62.6303 73.966 62.4983 74.329 62.3003 74.571C62.1243 74.813 61.8493 74.978 61.4753 75.066C61.1013 75.176 60.6063 75.231 59.9903 75.231C59.3963 75.231 58.6483 75.231 57.7463 75.231C55.3703 75.231 53.4893 74.67 52.1033 73.548C50.7393 72.426 50.0133 70.644 49.9253 68.202C49.8813 67.146 50.0133 66.178 50.3213 65.298C50.6293 64.418 51.0803 63.67 51.6743 63.054C52.2903 62.416 53.0383 61.932 53.9183 61.602C54.8203 61.25 55.8433 61.085 56.9873 61.107H58.8023V55.2C58.8023 54.848 58.8023 54.507 58.8023 54.177C58.8023 53.825 58.8353 53.506 58.9013 53.22C58.9673 52.912 59.0993 52.648 59.2973 52.428C59.4953 52.208 59.7923 52.043 60.1883 51.933ZM54.4463 70.248C54.9083 70.886 55.7443 71.238 56.9543 71.304C57.1963 71.326 57.4273 71.337 57.6473 71.337C57.8673 71.315 58.0653 71.282 58.2413 71.238C58.4393 71.216 58.6263 71.183 58.8023 71.139V65.034C58.0323 64.902 57.3283 64.825 56.6903 64.803C56.0743 64.759 55.4583 64.979 54.8423 65.463C54.5123 65.727 54.2593 66.068 54.0833 66.486C53.9073 66.882 53.8083 67.311 53.7863 67.773C53.7643 68.213 53.8083 68.653 53.9183 69.093C54.0283 69.533 54.2043 69.918 54.4463 70.248ZM76.9079 70.479C77.1719 70.413 77.4359 70.369 77.6999 70.347C77.9859 70.325 78.2389 70.358 78.4589 70.446C78.7009 70.534 78.8989 70.688 79.0529 70.908C79.2069 71.106 79.2839 71.392 79.2839 71.766C79.2839 72.03 79.2179 72.283 79.0859 72.525C78.9539 72.767 78.7889 72.987 78.5909 73.185C78.3929 73.383 78.1729 73.559 77.9309 73.713C77.6889 73.845 77.4579 73.955 77.2379 74.043C76.5999 74.329 75.8629 74.549 75.0269 74.703C74.2129 74.857 73.3659 74.912 72.4859 74.868C71.2979 74.824 70.1539 74.593 69.0539 74.175C67.9759 73.735 67.1289 73.02 66.5129 72.03C65.9409 71.062 65.5999 69.984 65.4899 68.796C65.3799 67.608 65.4349 66.486 65.6549 65.43C65.8969 64.154 66.3039 63.12 66.8759 62.328C67.4699 61.514 68.1739 60.865 68.9879 60.381C69.9779 59.809 71.0889 59.512 72.3209 59.49C73.5529 59.468 74.7299 59.71 75.8519 60.216C76.5999 60.546 77.2709 60.997 77.8649 61.569C78.4589 62.119 78.9099 62.79 79.2179 63.582C79.3059 63.78 79.3719 64.022 79.4159 64.308C79.4819 64.594 79.5259 64.902 79.5479 65.232C79.5699 65.54 79.5699 65.848 79.5479 66.156C79.5259 66.464 79.4709 66.739 79.3829 66.981C79.2509 67.377 79.0859 67.685 78.8879 67.905C78.6899 68.125 78.4369 68.29 78.1289 68.4C77.8209 68.51 77.4469 68.587 77.0069 68.631C76.5889 68.653 76.0829 68.675 75.4889 68.697C74.9609 68.719 74.4659 68.73 74.0039 68.73C73.5419 68.73 73.0689 68.73 72.5849 68.73C72.1009 68.708 71.5949 68.697 71.0669 68.697C70.5609 68.675 69.9889 68.653 69.3509 68.631C69.2849 69.071 69.3399 69.456 69.5159 69.786C69.7139 70.094 69.9779 70.358 70.3079 70.578C70.6379 70.776 71.0119 70.93 71.4299 71.04C71.8479 71.15 72.2549 71.216 72.6509 71.238C73.3989 71.282 74.1139 71.227 74.7959 71.073C75.4779 70.897 76.1819 70.699 76.9079 70.479ZM75.4889 64.077C75.0709 63.593 74.6309 63.241 74.1689 63.021C73.8169 62.867 73.4429 62.801 73.0469 62.823C72.6729 62.823 72.3099 62.878 71.9579 62.988C71.3199 63.142 70.7809 63.472 70.3409 63.978C70.2969 64.022 70.2199 64.132 70.1099 64.308C69.9999 64.462 69.8899 64.627 69.7799 64.803C69.6919 64.979 69.6259 65.144 69.5819 65.298C69.5379 65.452 69.5599 65.529 69.6479 65.529H76.1159C76.0939 65.221 76.0389 64.968 75.9509 64.77C75.8629 64.55 75.7089 64.319 75.4889 64.077ZM82.2485 63.318C82.2485 63.054 82.2485 62.757 82.2485 62.427C82.2485 62.075 82.2595 61.723 82.2815 61.371C82.3035 60.997 82.3365 60.645 82.3805 60.315C82.4465 59.963 82.5345 59.655 82.6445 59.391C82.8205 58.995 83.0955 58.731 83.4695 58.599C83.8435 58.445 84.2505 58.379 84.6905 58.401C85.1525 58.401 85.5155 58.478 85.7795 58.632C86.0435 58.786 86.2415 58.995 86.3735 59.259C86.5055 59.501 86.5825 59.787 86.6045 60.117C86.6485 60.425 86.6705 60.755 86.6705 61.107C86.8685 60.755 87.1325 60.469 87.4625 60.249C87.8145 60.029 88.1665 59.853 88.5185 59.721C88.8705 59.589 89.1895 59.501 89.4755 59.457C89.7615 59.391 89.9265 59.358 89.9705 59.358C90.5205 59.314 91.0155 59.303 91.4555 59.325C91.9175 59.347 92.4235 59.446 92.9735 59.622C93.3255 59.754 93.6885 59.941 94.0625 60.183C94.4365 60.403 94.7665 60.667 95.0525 60.975C95.3385 61.283 95.5255 61.624 95.6135 61.998C95.7235 62.35 95.6795 62.724 95.4815 63.12C95.1735 63.67 94.8325 63.945 94.4585 63.945C94.0845 63.923 93.6775 63.857 93.2375 63.747C92.9955 63.703 92.7095 63.604 92.3795 63.45C92.0495 63.296 91.7635 63.197 91.5215 63.153C90.7735 63.043 90.1135 63.098 89.5415 63.318C88.9695 63.538 88.4745 63.802 88.0565 64.11C87.5725 64.484 87.1545 64.913 86.8025 65.397V70.149C86.8025 70.743 86.7915 71.359 86.7695 71.997C86.7695 72.635 86.6815 73.218 86.5055 73.746C86.3515 74.252 86.0765 74.67 85.6805 75C85.3065 75.308 84.7565 75.44 84.0305 75.396C83.6345 75.374 83.2825 75.187 82.9745 74.835C82.6665 74.461 82.4795 74.098 82.4135 73.746C82.3695 73.416 82.3365 73.02 82.3145 72.558C82.2925 72.096 82.2705 71.612 82.2485 71.106C82.2485 70.6 82.2485 70.094 82.2485 69.588C82.2485 69.06 82.2485 68.576 82.2485 68.136V63.318Z" fill="#3C3C3C"/>
<path d="M10.1967 45.2047C10.1967 40.8831 10.1914 26.4862 10.1914 14.9635C10.1914 11.7385 11.5667 2 24.7502 2C37.9338 2 38.0629 13.6188 38.3854 18.1621C38.8499 24.7126 38.8125 34.3243 44.7919 39.5004C48.8302 42.9958 55.2559 42.6694 58.6727 40.1342C65.4636 35.0954 65.2906 30.0862 66.7471 25.7657C67.4187 23.7713 72.0153 18.5635 79.8505 18.5635C90.0422 18.5635 92.954 22.7826 92.954 32.9669C92.954 38.7282 92.9486 33.682 92.9486 45.2047" stroke="#3C3C3C" stroke-width="4" stroke-miterlimit="10"/>
<path d="M0 24.325H20.3823" stroke="#3C3C3C" stroke-width="4" stroke-miterlimit="10"/>
<path d="M66.7471 16.9221V37.0868" stroke="#3C3C3C" stroke-width="4" stroke-miterlimit="10"/>
<path d="M10.1918 47.4093C10.9961 47.4093 11.6482 46.7642 11.6482 45.9684C11.6482 45.1727 10.9961 44.5276 10.1918 44.5276C9.38741 44.5276 8.73535 45.1727 8.73535 45.9684C8.73535 46.7642 9.38741 47.4093 10.1918 47.4093Z" stroke="#3C3C3C" stroke-width="4" stroke-miterlimit="10"/>
<path d="M39.6605 15.6829C39.6605 16.4794 39.0081 17.1248 38.2063 17.1248C37.4044 17.1248 36.7488 16.4794 36.7488 15.6829C36.7488 14.8864 37.4012 14.2441 38.2063 14.2441C39.0113 14.2441 39.6605 14.8896 39.6605 15.6829Z" stroke="#3C3C3C" stroke-width="4" stroke-miterlimit="10"/>
<path d="M92.9862 47.4135C93.7906 47.4135 94.4426 46.7684 94.4426 45.9726C94.4426 45.1768 93.7906 44.5317 92.9862 44.5317C92.1818 44.5317 91.5298 45.1768 91.5298 45.9726C91.5298 46.7684 92.1818 47.4135 92.9862 47.4135Z" stroke="#3C3C3C" stroke-width="4" stroke-miterlimit="10"/>
</svg>
